<?xml version="1.0" standalone="no"?>
<!DOCTYPE svg PUBLIC "-//W3C//DTD SVG 20010904//EN"
 "http://www.w3.org/TR/2001/REC-SVG-20010904/DTD/svg10.dtd">
<svg version="1.0" xmlns="http://www.w3.org/2000/svg"
 width="600.000000pt" height="600.000000pt" viewBox="0 0 600.000000 600.000000"
 preserveAspectRatio="xMidYMid meet">
<metadata>
Created by potrace 1.12, written by Peter Selinger 2001-2015
</metadata>
<g transform="translate(0.000000,600.000000) scale(0.100000,-0.100000)"
fill="#cc3300" stroke="none">
<path d="M0 3000 l0 -3000 3000 0 3000 0 0 3000 0 3000 -3000 0 -3000 0 0
-3000z m3435 2551 c587 -48 871 -130 1105 -320 316 -255 429 -648 315 -1096
-64 -252 -232 -596 -415 -850 -308 -426 -923 -792 -1640 -975 -115 -30 -380
-88 -434 -95 -15 -3 -35 -7 -45 -9 -9 -3 -36 -8 -60 -11 -23 -3 -55 -7 -70
-10 -224 -38 -441 -55 -680 -54 -167 1 -202 3 -156 10 61 9 216 34 270 44 26
5 57 11 100 21 6 1 24 5 40 8 188 36 529 138 723 215 452 180 787 393 1058
673 213 220 336 412 441 688 80 211 110 353 110 520 0 433 -250 694 -750 781
-133 23 -435 27 -442 7 -2 -7 -13 -150 -25 -318 -21 -316 -29 -427 -35 -495
-1 -22 -22 -317 -45 -655 -23 -338 -45 -624 -50 -636 -6 -15 -116 -64 -469
-208 -254 -104 -463 -187 -465 -185 -3 3 64 1099 79 1279 3 36 28 425 55 865
28 439 52 800 54 802 21 21 1180 24 1431 4z m-765 -3747 c0 -42 -89 -1345 -93
-1357 -2 -7 -916 -11 -923 -4 -4 3 76 1165 82 1193 3 18 13 22 66 28 243 25
603 97 783 155 82 27 85 27 85 -15z"/>
</g>
</svg>
